<?xml version="1.0" encoding="utf-8"?>
<!-- Generator: Adobe Illustrator 22.1.0, SVG Export Plug-In . SVG Version: 6.00 Build 0)  -->
<svg version="1.1" id="Layer_1" xmlns="http://www.w3.org/2000/svg" xmlns:xlink="http://www.w3.org/1999/xlink" x="0px" y="0px"
	 viewBox="0 0 2000 2000" style="enable-background:new 0 0 2000 2000;" xml:space="preserve">
<style type="text/css">
	.st0{fill:#655F61;stroke:#000000;stroke-width:4;stroke-miterlimit:10;}
	.st1{fill:#0E8E97;stroke:#000000;stroke-width:4;stroke-miterlimit:10;}
</style>
<g>
	<path class="st0" d="M1483.8,943h161.4l1.1,0c8.3,41.9,12.7,85.2,12.7,129.5c0,365.9-296.6,662.5-662.5,662.5
		c-280,0-497.3-123.3-594.1-368.4c-0.9-2.2-3-3.6-5.3-3.6H293c-3.9,0-6.7,3.9-5.4,7.6C390,1669.6,663.9,1835,998.5,1835
		c405.2,0,736.6-316.1,761.1-715.1c7.9-128.1,3.5-197.2-45.6-305.9h-107.3h-53.7"/>
	<path class="st0" d="M996,814H658.7c-0.5,0-0.9,0.1-1.4,0.2c-77.1,19.2-143.7,54.5-141.9,109c0.9,27-1,54,0.6,81.2
		c3,50.3,65.1,87.1,141.4,103.5c0.4,0.1,0.8,0.1,1.2,0.1h284.7c3.2,0,5.7-2.6,5.7-5.7V987.7c0-3.2-2.6-5.7-5.7-5.7H696.7
		c-3.2,0-5.7-2.6-5.7-5.7v-27.6c0-3.2,2.6-5.7,5.7-5.7H996"/>
</g>
<g>
	<path class="st1" d="M276.7,1312h725.9c0.2,0,0.5,0,0.7-0.1c64-15.5,110.3-55.2,134.5-125.4c0.1-0.3,0.2-0.7,0.2-1v-56.4
		c0-1.7,1.4-3.1,3.1-3.1h241.3l2.1-0.5l73-134.4l-1.8-0.1H999.1c-1.7,0-3.1,1.4-3.1,3.1v78.9c0.7,63.7-6.7,113.5-47,113H346.3l0,0
		c-1.5,0-2.8-1.1-3.1-2.6c-6.1-36.1-9.2-73.1-9.2-110.9C334,706.6,630.6,410,996.5,410c252.6,0,472.1,141.3,583.9,349.2
		c0.5,1,1.6,1.6,2.7,1.6L1694,761l0.1,0c-125.7-278.8-414.5-469.7-743-449.6C552.1,335.9,236,667.3,236,1072.5
		c0,83.6,13.1,164.2,38,239.5"/>
	<polygon class="st1" points="996,814 996,943 1483.5,943.1 1553.7,813.9 	"/>
</g>
</svg>
